<svg width="30" height="30" viewBox="0 0 30 30" fill="none" xmlns="http://www.w3.org/2000/svg">
<g clip-path="url(#clip0_122_682)">
<path d="M29.1336 9.99953C27.7979 6.22427 25.072 3.19515 21.458 1.47011C17.8441 -0.254863 13.7747 -0.469321 9.99945 0.866386C6.22418 2.20209 3.19512 4.92797 1.47009 8.54196C-0.254888 12.1559 -0.469287 16.2253 0.866361 20.0005C2.20207 23.7758 4.92795 26.8049 8.54188 28.53C10.5902 29.5076 12.7847 30.0001 14.9891 30.0001C16.6742 30.0001 18.365 29.7123 20.0004 29.1337C23.7757 27.798 26.8048 25.0722 28.5299 21.4582C30.2548 17.8442 30.4693 13.7747 29.1336 9.99953ZM26.9443 20.7013C26.8638 20.87 26.7794 21.036 26.6925 21.2002L25.9127 18.708L28.0596 17.1805C27.8567 18.385 27.485 19.5686 26.9443 20.7013ZM28.2407 14.8955L24.7407 17.3856L19.8771 15.7358L18.558 11.6762L21.6376 7.51804L25.9519 7.56026C26.5798 8.4879 27.0938 9.50157 27.4773 10.5855C27.9752 11.9925 28.228 13.4457 28.2407 14.8955ZM15.0019 18.3743L11.8586 16.0906L13.0592 12.3955H16.9445L18.1451 16.0906L15.0019 18.3743ZM10.1265 15.736L5.26357 17.3856L1.75869 14.892C1.77315 12.979 2.20705 11.0765 3.05563 9.29871C3.34639 8.68954 3.67944 8.10912 4.05079 7.56021L8.36613 7.51798L11.4457 11.6761L10.1265 15.736ZM24.5129 5.7892L21.8451 5.76308L21.0491 3.22847C22.3532 3.89744 23.5182 4.763 24.5129 5.7892ZM18.9353 2.36121L20.2262 6.47181L17.1402 10.6387H12.8635L9.7775 6.47181L11.0679 2.36261C12.3607 1.95911 13.6868 1.75783 15.0095 1.75783C16.3347 1.75783 17.6561 1.95999 18.9353 2.36121ZM8.95603 3.22378L8.15858 5.76308L5.48687 5.7892C6.48842 4.75292 7.65705 3.88713 8.95603 3.22378ZM1.94193 17.1786L4.09161 18.708L3.30879 21.2096C3.00585 20.6363 2.74278 20.037 2.52253 19.4145C2.26256 18.6795 2.06925 17.9318 1.94193 17.1786ZM4.54852 23.131L5.82537 19.0502L10.6777 17.4043L14.1233 19.9077V24.9889L10.6602 27.505C10.1997 27.3442 9.74517 27.1575 9.29863 26.9444C7.40979 26.0428 5.79585 24.7375 4.54852 23.131ZM12.8733 28.0687L15.0019 26.5222L17.1269 28.0662C16.4176 28.1833 15.7036 28.2422 14.9905 28.2422C14.2817 28.2422 13.5741 28.1838 12.8733 28.0687ZM19.4145 27.4774C19.3899 27.4861 19.365 27.4942 19.3403 27.5028L15.8803 24.9889V19.9078L19.3262 17.4041L24.1789 19.0502L25.4535 23.1237C23.9156 25.1108 21.8398 26.6193 19.4145 27.4774Z" fill="#16C7B4"/>
</g>
<defs>
<clipPath id="clip0_122_682">
<rect width="30" height="30" fill="white"/>
</clipPath>
</defs>
</svg>
