<svg width="18" height="18" viewBox="0 0 18 18" fill="none" xmlns="http://www.w3.org/2000/svg">
<path d="M13.4392 10.74C13.2449 10.9282 13.1557 11.2005 13.1999 11.4675L13.8667 15.1575C13.9229 15.4702 13.7909 15.7868 13.5292 15.9675C13.2727 16.155 12.9314 16.1775 12.6517 16.0275L9.32991 14.295C9.21441 14.2335 9.08616 14.2005 8.95491 14.1968H8.75166C8.68116 14.2073 8.61216 14.2297 8.54916 14.2642L5.22666 16.005C5.06241 16.0875 4.87641 16.1168 4.69416 16.0875C4.25016 16.0035 3.95391 15.5805 4.02666 15.1343L4.69416 11.4443C4.73841 11.175 4.64916 10.9012 4.45491 10.71L1.74666 8.085C1.52016 7.86525 1.44141 7.53525 1.54491 7.2375C1.64541 6.9405 1.90191 6.72375 2.21166 6.675L5.93916 6.13425C6.22266 6.105 6.47166 5.9325 6.59916 5.6775L8.24166 2.31C8.28066 2.235 8.33091 2.166 8.39166 2.1075L8.45916 2.055C8.49441 2.016 8.53491 1.98375 8.57991 1.9575L8.66166 1.9275L8.78916 1.875H9.10491C9.38691 1.90425 9.63516 2.073 9.76491 2.325L11.4292 5.6775C11.5492 5.92275 11.7824 6.093 12.0517 6.13425L15.7792 6.675C16.0942 6.72 16.3574 6.9375 16.4617 7.2375C16.5599 7.53825 16.4752 7.86825 16.2442 8.085L13.4392 10.74Z" fill="#E8E8E8"/>
</svg>
