<svg width="26" height="26" viewBox="0 0 26 26" fill="none" xmlns="http://www.w3.org/2000/svg">
<g id="table-tennis">
<path id="Vector" d="M6.64966 10.252L15.7479 19.3504" stroke="black" stroke-width="1.5" stroke-linejoin="round"/>
<path id="Vector_2" d="M22.6 24.4C23.5942 24.4 24.4 23.5942 24.4 22.6C24.4 21.6059 23.5942 20.8 22.6 20.8C21.6059 20.8 20.8 21.6059 20.8 22.6C20.8 23.5942 21.6059 24.4 22.6 24.4Z" stroke="black" stroke-width="1.5" stroke-linecap="round" stroke-linejoin="round"/>
<path id="Vector_3" d="M22.2238 3.77651C18.9939 0.546111 13.3436 0.959309 9.60354 4.69995C6.4689 7.83435 5.67631 12.3081 7.40261 15.5773C7.57061 15.8948 7.5158 16.2823 7.24052 16.5136L1.86513 21.0347C1.53115 21.3154 1.50939 21.8214 1.81767 22.1292L3.87043 24.1824C4.17883 24.4913 4.68497 24.4683 4.96577 24.1343L9.48635 18.7589C9.7178 18.484 10.105 18.4287 10.4233 18.5972C13.6916 20.3232 18.1656 19.5319 21.3004 16.3964C25.0403 12.6569 25.4539 7.00691 22.2238 3.77651V3.77651Z" stroke="black" stroke-width="1.5" stroke-linecap="round" stroke-linejoin="round"/>
</g>
</svg>
