<svg width="26" height="26" viewBox="0 0 26 26" fill="none" xmlns="http://www.w3.org/2000/svg">
<g id="bow-target">
<path id="Vector" d="M19.4543 3.61538C17.6184 2.34926 15.3986 1.6001 13.0001 1.6001C6.70391 1.6001 1.6001 6.70406 1.6001 13.0001C1.6001 19.2961 6.70391 24.4001 13.0001 24.4001C19.2963 24.4001 24.4001 19.2961 24.4001 13.0001C24.4001 10.6245 23.6654 8.42474 22.4214 6.5993" stroke="black" stroke-width="1.5" stroke-linecap="round" stroke-linejoin="round"/>
<path id="Vector_2" d="M16.8662 6.23135C15.7252 5.57855 14.4079 5.19995 13 5.19995C8.69169 5.19995 5.19995 8.69219 5.19995 13C5.19995 17.3077 8.69169 20.8 13 20.8C17.3082 20.8 20.8 17.3077 20.8 13C20.8 11.5918 20.4214 10.2743 19.7688 9.13391" stroke="black" stroke-width="1.5" stroke-linecap="round" stroke-linejoin="round"/>
<path id="Vector_3" d="M16.9943 11.6978C17.1278 12.1078 17.2 12.5455 17.2 13C17.2 15.3196 15.3196 17.2 13 17.2C10.6804 17.2 8.80005 15.3196 8.80005 13C8.80005 10.6804 10.6804 8.80005 13 8.80005C13.4078 8.80005 13.8019 8.85815 14.1747 8.96652" stroke="black" stroke-width="1.5" stroke-linecap="round" stroke-linejoin="round"/>
<path id="Vector_4" d="M12.3999 13.6L21.9999 4" stroke="black" stroke-width="1.5" stroke-linecap="round" stroke-linejoin="round"/>
<path id="Vector_5" d="M22 1.6001V4.0001H24.4" stroke="black" stroke-width="1.5" stroke-linecap="round" stroke-linejoin="round"/>
</g>
</svg>
